<?xml version="1.0" encoding="UTF-8"?>
<level>
  <owner>Fistachka</owner>
  <repo>fiksikiweb</repo>
  <version>v1.0.0</version>
  <next number="1" owner="Fistachka" repo="fiksikidva"/>
  <readme>
    <ru>635b5bf32b57f66c375ac25426af366dd44be60f33230b12e16bda383cfe77ce</ru>
    <en>c5398ae047d389c2839443f15939260c34815e1049e2039d47b6b0b80ed50c62</en>
  </readme>
  <license>b1b99f5538d1fd3702219bff50c665196dfa42f6ee755c37fe41a6178d6bc6e5</license>
  <exercise number="1">
    <scale>chromaticmajor</scale>
    <bpm>108</bpm>
    <lowestNote>18</lowestNote>
    <tonalities>1</tonalities>
    <video name="1t.mp4" size="832057" type="video/mp4" volume="0.5">b87d1b77f08ccc95e28264a276a15457c1f1221790b05f1f0dd05b3ca9d0e029</video>
    <notes>
      <note number="1" values="18" ticks="48" durationTicks="42" ppq="96" velocity="0.799"/>
      <note number="2" values="38" ticks="96" durationTicks="45" ppq="96" velocity="0.884"/>
      <note number="3" values="58" ticks="144" durationTicks="47" ppq="96" velocity="0.787"/>
      <note number="4" values="68" ticks="192" durationTicks="44" ppq="96" velocity="0.847"/>
      <note number="5" values="978" ticks="246" durationTicks="42" ppq="96" velocity="0.742"/>
      <note number="6" values="68" ticks="288" durationTicks="46" ppq="96" velocity="0.872"/>
      <note number="7" values="58" ticks="325" durationTicks="45" ppq="96" velocity="0.774"/>
    </notes>
  </exercise>
  <exercise number="2">
    <scale>major</scale>
    <bpm>108</bpm>
    <lowestNote>18</lowestNote>
    <tonalities>1</tonalities>
    <video name="2t.mp4" size="517646" type="video/mp4" volume="0.5">f41839d897ab7dbcc83d179287395b4da8c87fd50fec9f5594e2cc37aa582038</video>
    <notes>
      <note number="1" values="38" ticks="153" durationTicks="88" ppq="192" velocity="0.782"/>
      <note number="2" values="38" ticks="251" durationTicks="86" ppq="192" velocity="0.867"/>
      <note number="3" values="38" ticks="348" durationTicks="83" ppq="192" velocity="0.777"/>
      <note number="4" values="48" ticks="442" durationTicks="92" ppq="192" velocity="0.839"/>
      <note number="5" values="38" ticks="538" durationTicks="94" ppq="192" velocity="0.767"/>
      <note number="6" values="28" ticks="632" durationTicks="136" ppq="192" velocity="0.904"/>
    </notes>
  </exercise>
  <exercise number="3">
    <scale>major</scale>
    <bpm>108</bpm>
    <lowestNote>5</lowestNote>
    <tonalities>1</tonalities>
    <video name="3t.mp4" size="745424" type="video/mp4" volume="0.5">97b9316af59dad4339045af05a348bc73985c0c7451749cd40cea06550183a22</video>
    <notes>
      <note number="1" values="5" ticks="71" durationTicks="47" ppq="96" velocity="0.884"/>
      <note number="2" values="7" ticks="118" durationTicks="46" ppq="96" velocity="0.913"/>
      <note number="3" values="28" ticks="166" durationTicks="48" ppq="96" velocity="0.792"/>
      <note number="4" values="38" ticks="205" durationTicks="55" ppq="96" velocity="0.832"/>
      <note number="5" values="48" ticks="256" durationTicks="62" ppq="96" velocity="0.782"/>
      <note number="6" values="38" ticks="312" durationTicks="45" ppq="96" velocity="0.857"/>
      <note number="7" values="28" ticks="357" durationTicks="58" ppq="96" velocity="0.752"/>
    </notes>
  </exercise>
  <exercise number="4">
    <scale>major</scale>
    <bpm>108</bpm>
    <lowestNote>18</lowestNote>
    <tonalities>1</tonalities>
    <video name="4t.mp4" size="611667" type="video/mp4" volume="0.5">9b3f822e25c095abb8edfc9bb99f0400a0827d46fb8b34159541f32252bda867</video>
    <notes>
      <note number="1" values="58" ticks="38" durationTicks="43" ppq="96" velocity="0.779"/>
      <note number="2" values="58" ticks="85" durationTicks="48" ppq="96" velocity="0.864"/>
      <note number="3" values="68" ticks="131" durationTicks="48" ppq="96" velocity="0.699"/>
      <note number="4" values="58" ticks="183" durationTicks="45" ppq="96" velocity="0.774"/>
      <note number="5" values="38" ticks="230" durationTicks="52" ppq="96" velocity="0.727"/>
      <note number="6" values="28" ticks="279" durationTicks="66" ppq="96" velocity="0.819"/>
    </notes>
  </exercise>
  <exercise number="5">
    <scale>major</scale>
    <bpm>108</bpm>
    <lowestNote>18</lowestNote>
    <tonalities>1</tonalities>
    <video name="5t.mp4" size="877674" type="video/mp4" volume="0.5">527a0c2094707008e082faedfae4e1d5e472cab6e86fd0a2dc4d7aab14dd2035</video>
    <notes>
      <note number="1" values="58" ticks="24" durationTicks="49" ppq="96" velocity="0.843"/>
      <note number="2" values="68" ticks="72" durationTicks="45" ppq="96" velocity="0.913"/>
      <note number="3" values="78" ticks="119" durationTicks="45" ppq="96" velocity="0.874"/>
      <note number="4" values="188" ticks="168" durationTicks="43" ppq="96" velocity="0.921"/>
      <note number="5" values="68" ticks="215" durationTicks="46" ppq="96" velocity="0.921"/>
      <note number="6" values="58" ticks="265" durationTicks="47" ppq="96" velocity="0.921"/>
      <note number="7" values="48" ticks="312" durationTicks="48" ppq="96" velocity="0.921"/>
    </notes>
  </exercise>
  <exercise number="6">
    <scale>major</scale>
    <bpm>108</bpm>
    <lowestNote>18</lowestNote>
    <tonalities>1</tonalities>
    <video name="6t.mp4" size="691496" type="video/mp4" volume="0.5">f69a392d0be0abd46b73d1a71092e9c0a26a6e2202ffc4430f2bb4c05b73eb3a</video>
    <notes>
      <note number="1" values="48" ticks="37" durationTicks="110" ppq="192" velocity="0.945"/>
      <note number="2" values="38" ticks="159" durationTicks="92" ppq="192" velocity="0.953"/>
      <note number="3" values="28" ticks="257" durationTicks="95" ppq="192" velocity="0.945"/>
      <note number="4" values="38" ticks="351" durationTicks="90" ppq="192" velocity="0.953"/>
      <note number="5" values="48" ticks="448" durationTicks="93" ppq="192" velocity="0.937"/>
      <note number="6" values="58" ticks="533" durationTicks="190" ppq="192" velocity="0.945"/>
    </notes>
  </exercise>
  <exercise number="7">
    <scale>major</scale>
    <bpm>108</bpm>
    <lowestNote>18</lowestNote>
    <tonalities>1</tonalities>
    <video name="7t.mp4" size="440872" type="video/mp4" volume="0.5">4da94eefc2d98f9edbdac6824785da838b4dac1cfff6c73c158c6a00599835f6</video>
    <notes>
      <note number="1" values="58" ticks="72" durationTicks="96" ppq="96" velocity="0.843"/>
      <note number="2" values="188" ticks="169" durationTicks="45" ppq="96" velocity="0.913"/>
      <note number="3" values="38" ticks="216" durationTicks="48" ppq="96" velocity="0.874"/>
      <note number="4" values="48" ticks="264" durationTicks="64" ppq="96" velocity="0.921"/>
      <note number="5" values="58" ticks="312" durationTicks="48" ppq="96" velocity="0.921"/>
      <note number="6" values="68" ticks="361" durationTicks="45" ppq="96" velocity="0.921"/>
      <note number="7" values="78" ticks="407" durationTicks="41" ppq="96" velocity="0.921"/>
      <note number="8" values="188" ticks="438" durationTicks="72" ppq="96" velocity="0.921"/>
    </notes>
  </exercise>
  <exercise number="8">
    <scale>major</scale>
    <bpm>108</bpm>
    <lowestNote>18</lowestNote>
    <tonalities>1</tonalities>
    <video name="8t.mp4" size="453752" type="video/mp4" volume="0.5">d63c4e9bb65dc88b806af69e69177b2539f7e1fc5e85d16b9e9ccbe13b002c42</video>
    <notes>
      <note number="1" values="48" ticks="36" durationTicks="53" ppq="96" velocity="0.843"/>
      <note number="2" values="38" ticks="84" durationTicks="32" ppq="96" velocity="0.913"/>
      <note number="3" values="38" ticks="133" durationTicks="47" ppq="96" velocity="0.874"/>
      <note number="4" values="28" ticks="180" durationTicks="30" ppq="96" velocity="0.921"/>
      <note number="5" values="28" ticks="228" durationTicks="46" ppq="96" velocity="0.921"/>
      <note number="6" values="18" ticks="277" durationTicks="95" ppq="96" velocity="0.921"/>
    </notes>
  </exercise>
</level>
